<mxfile host="app.diagrams.net" agent="Mozilla/5.0 (Windows NT 10.0; Win64; x64) AppleWebKit/537.36 (KHTML, like Gecko) Chrome/133.0.0.0 Safari/537.36" version="26.0.14">
  <diagram id="Q0udqgFAq07rxdsDxWfX" name="Page-1">
    <mxGraphModel dx="121" dy="60" grid="1" gridSize="10" guides="1" tooltips="1" connect="1" arrows="1" fold="1" page="1" pageScale="1" pageWidth="850" pageHeight="1100" math="0" shadow="0">
      <root>
        <mxCell id="0" />
        <mxCell id="1" parent="0" />
        <mxCell id="214YtNxc_t59JiVgN8RB-11" value="" style="endArrow=none;html=1;rounded=1;exitX=-0.367;exitY=-0.005;exitDx=0;exitDy=0;entryX=0.93;entryY=-0.003;entryDx=0;entryDy=0;entryPerimeter=0;exitPerimeter=0;fontColor=#6E717C;strokeColor=#6E717C;strokeWidth=1;curved=0;jumpSize=11;jumpStyle=none;shadow=0;endSize=29;startSize=22;" edge="1" parent="1">
          <mxGeometry width="50" height="50" relative="1" as="geometry">
            <mxPoint x="466.149" y="184.98499999999999" as="sourcePoint" />
            <mxPoint x="463.2475" y="185.00400000000002" as="targetPoint" />
          </mxGeometry>
        </mxCell>
        <mxCell id="214YtNxc_t59JiVgN8RB-2" value="" style="shape=curlyBracket;whiteSpace=wrap;html=1;rounded=1;labelPosition=left;verticalLabelPosition=middle;align=right;verticalAlign=middle;size=0.5;aspect=fixed;movable=1;resizable=1;rotatable=1;deletable=1;editable=1;locked=0;connectable=1;fillColor=#6E717C;strokeColor=#6E717C;shadow=0;" vertex="1" parent="1">
          <mxGeometry x="461.5" y="185" width="2.75" height="12" as="geometry" />
        </mxCell>
        <mxCell id="214YtNxc_t59JiVgN8RB-3" value="" style="ellipse;whiteSpace=wrap;html=1;aspect=fixed;fillColor=#0094C8;strokeColor=#0094C8;" vertex="1" parent="1">
          <mxGeometry x="466.25" y="183" width="3" height="3" as="geometry" />
        </mxCell>
        <mxCell id="214YtNxc_t59JiVgN8RB-14" value="" style="endArrow=none;html=1;rounded=0;exitX=-0.367;exitY=-0.005;exitDx=0;exitDy=0;entryX=0.93;entryY=-0.003;entryDx=0;entryDy=0;entryPerimeter=0;exitPerimeter=0;fontColor=#6E717C;strokeColor=#6E717C;strokeWidth=1;" edge="1" parent="1">
          <mxGeometry width="50" height="50" relative="1" as="geometry">
            <mxPoint x="466.149" y="197.005" as="sourcePoint" />
            <mxPoint x="463.2475" y="197.02400000000003" as="targetPoint" />
          </mxGeometry>
        </mxCell>
        <mxCell id="214YtNxc_t59JiVgN8RB-15" value="" style="endArrow=none;html=1;rounded=1;exitX=-0.367;exitY=-0.005;exitDx=0;exitDy=0;entryX=0.93;entryY=-0.003;entryDx=0;entryDy=0;entryPerimeter=0;exitPerimeter=0;fontColor=#6E717C;strokeColor=#6E717C;strokeWidth=1;curved=0;jumpSize=11;jumpStyle=none;shadow=0;endSize=29;startSize=22;" edge="1" parent="1">
          <mxGeometry width="50" height="50" relative="1" as="geometry">
            <mxPoint x="462.499" y="190.975" as="sourcePoint" />
            <mxPoint x="459.5975" y="190.99400000000003" as="targetPoint" />
          </mxGeometry>
        </mxCell>
        <mxCell id="214YtNxc_t59JiVgN8RB-1" value="" style="ellipse;whiteSpace=wrap;html=1;aspect=fixed;fillColor=#0094C8;strokeColor=#0094C8;" vertex="1" parent="1">
          <mxGeometry x="457.5" y="189.5" width="3" height="3" as="geometry" />
        </mxCell>
        <mxCell id="214YtNxc_t59JiVgN8RB-4" value="" style="ellipse;whiteSpace=wrap;html=1;aspect=fixed;fillColor=#0094C8;strokeColor=#0094C8;" vertex="1" parent="1">
          <mxGeometry x="466.25" y="195" width="3" height="3" as="geometry" />
        </mxCell>
      </root>
    </mxGraphModel>
  </diagram>
</mxfile>
